<svg xmlns="http://www.w3.org/2000/svg" viewBox="0 0 9.6 8.51"><title>Asset 7</title><g id="Layer_2" data-name="Layer 2"><g id="Layer_1-2" data-name="Layer 1"><path d="M9.6,8.51H4.25a4.26,4.26,0,1,1,1.8-.4H9.6ZM2.13,5.39A1.14,1.14,0,1,1,3.26,4.25,1.14,1.14,0,0,1,2.13,5.39Zm0-1.87a.73.73,0,1,0,.73.73A.73.73,0,0,0,2.13,3.52ZM6.38,5.39A1.14,1.14,0,1,1,7.52,4.25,1.14,1.14,0,0,1,6.38,5.39Zm0-1.87a.73.73,0,1,0,.73.73A.73.73,0,0,0,6.38,3.52ZM4.25,3.26A1.14,1.14,0,1,1,5.39,2.13,1.14,1.14,0,0,1,4.25,3.26Zm0-1.87A.73.73,0,1,0,5,2.13.73.73,0,0,0,4.25,1.39Zm0,6.13A1.14,1.14,0,1,1,5.39,6.38,1.14,1.14,0,0,1,4.25,7.52Zm0-1.87A.73.73,0,1,0,5,6.38.73.73,0,0,0,4.25,5.65ZM4.25.4A3.85,3.85,0,1,0,8.11,4.25,3.86,3.86,0,0,0,4.25.4Z"></path></g></g></svg>