<svg xmlns="http://www.w3.org/2000/svg" viewBox="0 0 9.6 9.59"><title>Asset 6</title><g id="Layer_2" data-name="Layer 2"><g id="Layer_1-2" data-name="Layer 1"><path d="M.21,1.65A2.21,2.21,0,0,1,.5.58C.65.32.81.29,1,.51l4.2,4.2L8.35,7.83a1,1,0,0,1-.24,1.65.9.9,0,0,1-1-.12c-.35-.31-.67-.65-1-1l-.85-.85A.86.86,0,0,1,5,6.6c0-.05,0-.12,0-.18s0,0,0,0-.13-.17-.21-.18-.16.08-.24.12a.83.83,0,0,1-.94-.06A3.7,3.7,0,0,1,3.21,6C2.57,5.3,1.92,4.67,1.29,4a3.77,3.77,0,0,1-1-1.82c0-.17,0-.35-.07-.53M1,9.55a1,1,0,0,1-.91-.62,1,1,0,0,1,.24-1.1L1.74,6.4,2.16,6c.14-.14.28-.15.39,0s.09.26,0,.39L.69,8.16a.52.52,0,0,0-.15.6A.5.5,0,0,0,1.28,9l.15-.13L3.26,7c.18-.18.32-.21.44-.09s.09.26-.09.44L1.79,9.19A1,1,0,0,1,1,9.55ZM8,.29a1.22,1.22,0,0,1-.14.19L6.4,2a.92.92,0,0,0-.33.78.82.82,0,0,1-.34.81,2.64,2.64,0,0,0-.23.23c-.13.13-.28.14-.38,0a.25.25,0,0,1,0-.37c.11-.12.23-.22.33-.34a.36.36,0,0,0,.09-.2,1.62,1.62,0,0,1,.21-.94A2.17,2.17,0,0,1,6,1.65L7.54.12A.5.5,0,0,1,7.66,0,.25.25,0,0,1,8,.29ZM6.82,3.5a.94.94,0,0,0,.88-.37c.44-.46.91-.91,1.36-1.37l.14-.13a.22.22,0,0,1,.31,0,.23.23,0,0,1,0,.31l-.09.1L8,3.55A1.34,1.34,0,0,1,6.86,4a.56.56,0,0,0-.55.23,1.46,1.46,0,0,1-.2.2.25.25,0,1,1-.35-.34c.16-.17.33-.34.51-.5a.42.42,0,0,1,.22-.08A2.73,2.73,0,0,1,6.82,3.5ZM6.9,3a.25.25,0,0,1-.25-.37.66.66,0,0,1,.1-.13L8.21,1A.35.35,0,0,1,8.4.89a.3.3,0,0,1,.22.1.38.38,0,0,1,0,.25s-.06.09-.1.13L7.09,2.82A1.16,1.16,0,0,1,6.9,3ZM.85,1A1.7,1.7,0,0,0,.78,2.18a3.62,3.62,0,0,0,.94,1.57c.65.68,1.33,1.34,2,2,.22.22.36.23.61,0a.55.55,0,0,1,.75,0l.25.25a.54.54,0,0,1,.15.62.44.44,0,0,0,.13.51L7,8.62,7.35,9a.5.5,0,0,0,.84-.35A.59.59,0,0,0,8,8.14L1.82,2Z"></path></g></g></svg>