<svg xmlns="http://www.w3.org/2000/svg" xmlns:xlink="http://www.w3.org/1999/xlink" width="1000" height="1000" viewBox="0 0 1000 1000" xml:space="preserve"><desc>Created with Fabric.js 3.5.0</desc><defs></defs><g transform="matrix(28.0297 0 0 28.2373 493.0524 499.9995)"><path style="stroke: none; stroke-width: 1; stroke-dasharray: none; stroke-linecap: butt; stroke-dashoffset: 0; stroke-linejoin: miter; stroke-miterlimit: 4; is-custom-font: none; font-file-url: none; fill: rgb(0,0,0); fill-rule: nonzero; opacity: 1;" transform=" translate(-14.2924, -16.9997)" d="M 13.3069 26.3503 C 13.3946 26.3552 13.4824 26.3422 13.5649 26.3124 C 13.6475 26.2825 13.7229 26.2363 13.7867 26.1766 C 13.8505 26.1169 13.9013 26.045 13.936 25.9653 C 13.9707 25.8855 13.9885 25.7996 13.9883 25.7128 V 11.5462 C 13.9935 11.4565 13.9795 11.3667 13.9471 11.2827 C 13.9147 11.1987 13.8646 11.1225 13.8003 11.0589 C 13.7359 10.9954 13.6587 10.946 13.5737 10.914 C 13.4886 10.882 13.3977 10.8681 13.3069 10.8733 C 13.219 10.8731 13.132 10.8907 13.0512 10.9249 C 12.9704 10.9592 12.8976 11.0093 12.8372 11.0723 C 12.7767 11.1353 12.7299 11.2099 12.6997 11.2913 C 12.6694 11.3728 12.6564 11.4595 12.6612 11.5462 V 25.7128 C 12.6612 25.8819 12.7293 26.0441 12.8503 26.1636 C 12.9714 26.2832 13.1356 26.3503 13.3069 26.3503 Z M 18.2924 26.3503 C 18.3785 26.3555 18.4648 26.3426 18.5455 26.3124 C 18.6262 26.2822 18.6995 26.2354 18.7605 26.1751 C 18.8216 26.1148 18.8689 26.0425 18.8995 25.9628 C 18.9301 25.8831 18.9432 25.7979 18.938 25.7128 V 11.5462 C 18.9203 11.3897 18.8445 11.2452 18.7253 11.1405 C 18.6061 11.0359 18.4519 10.9785 18.2924 10.9795 C 18.2015 10.9744 18.1106 10.9883 18.0256 11.0203 C 17.9405 11.0523 17.8633 11.1017 17.799 11.1652 C 17.7346 11.2287 17.6846 11.305 17.6522 11.389 C 17.6198 11.4729 17.6057 11.5627 17.6109 11.6524 V 25.8191 C 17.6373 25.9755 17.7217 26.1165 17.8477 26.2147 C 17.9737 26.313 18.1322 26.3613 18.2924 26.3503 Z M 13.7014 29.892 C 13.9639 29.892 14.2204 29.9689 14.4387 30.1129 C 14.6569 30.2568 14.827 30.4615 14.9275 30.701 C 15.0279 30.9404 15.0542 31.2039 15.003 31.4581 C 14.9518 31.7123 14.8254 31.9458 14.6398 32.129 C 14.4542 32.3123 14.2177 32.4371 13.9603 32.4877 C 13.7029 32.5382 13.436 32.5123 13.1935 32.4131 C 12.951 32.3139 12.7438 32.146 12.598 31.9305 C 12.4521 31.715 12.3743 31.4616 12.3743 31.2024 C 12.425 30.8895 12.5858 30.6042 12.8286 30.3969 C 13.0714 30.1895 13.3805 30.0735 13.7014 30.0691 V 29.892 Z M 22.8475 29.892 C 23.1018 29.8943 23.3501 29.9687 23.5628 30.1064 C 23.7755 30.244 23.9436 30.4391 24.0473 30.6684 C 24.1509 30.8977 24.1856 31.1516 24.1473 31.3998 C 24.109 31.648 23.9992 31.8802 23.8311 32.0686 C 23.663 32.257 23.4437 32.3938 23.1991 32.4626 C 22.9545 32.5314 22.6951 32.5294 22.4517 32.4568 C 22.2082 32.3842 21.9911 32.2441 21.826 32.0531 C 21.6609 31.8621 21.5548 31.6283 21.5204 31.3795 C 21.5295 31.0348 21.6723 30.7067 21.9192 30.4628 C 22.1661 30.219 22.4984 30.0781 22.8475 30.0691 V 29.892 Z M 22.8475 28.5816 H 11.1189 C 10.5796 28.5725 10.0649 28.3569 9.68352 27.9802 C 9.30209 27.6036 9.08374 27.0954 9.07452 26.5628 V 10.6253 C 9.06495 10.3526 9.1105 10.0808 9.20851 9.82567 C 9.30652 9.57054 9.45503 9.33725 9.64535 9.13942 C 9.83568 8.9416 10.064 8.7832 10.317 8.67347 C 10.57 8.56374 10.8426 8.50489 11.1189 8.50035 H 25.4658 C 26.005 8.53679 26.5086 8.77894 26.8701 9.17556 C 27.2316 9.57217 27.4226 10.0921 27.4027 10.6253 V 26.7399 C 27.3935 27.2725 27.1751 27.7807 26.7937 28.1573 C 26.4122 28.534 25.8976 28.7496 25.3582 28.7587 L 22.8475 28.5816 Z M 22.2378 1.31077 C 22.3255 1.30594 22.4134 1.31886 22.4959 1.34874 C 22.5784 1.37861 22.6539 1.4248 22.7177 1.48449 C 22.7815 1.54417 22.8323 1.61609 22.8669 1.69584 C 22.9016 1.77559 22.9194 1.86148 22.9193 1.94827 C 22.9245 2.03798 22.9104 2.12777 22.878 2.21174 C 22.8456 2.29571 22.7956 2.37196 22.7312 2.43551 C 22.6669 2.49905 22.5897 2.54844 22.5046 2.58044 C 22.4196 2.61244 22.3286 2.62632 22.2378 2.62118 H 14.347 C 14.248 2.64381 14.145 2.64305 14.0464 2.61896 C 13.9478 2.59488 13.8563 2.54815 13.7794 2.48258 C 13.7025 2.41701 13.6424 2.33445 13.6039 2.2416 C 13.5654 2.14876 13.5497 2.04825 13.5579 1.94827 C 13.5555 1.85117 13.5755 1.75481 13.6165 1.66653 C 13.6575 1.57825 13.7184 1.50038 13.7945 1.43888 C 13.8706 1.37738 13.96 1.33387 14.0557 1.31166 C 14.1515 1.28946 14.2511 1.28915 14.347 1.31077 H 22.2378 Z M 15.4948 7.08368 V 3.9316 H 21.0542 V 7.08368 H 15.4948 Z M 5.30846 13.8483 L 2.90535 16.3628 L 1.50653 15.0878 L 3.90963 12.6087 H 5.16499 L 5.30846 13.8483 Z M 6.56381 12.3253 L 7.74743 11.6524 V 26.7399 C 7.74649 27.1956 7.84029 27.6466 8.02302 28.065 C 8.20575 28.4834 8.47352 28.8604 8.80975 29.1724 C 9.14599 29.4845 9.54352 29.7251 9.97774 29.8794 C 10.412 30.0336 10.8736 30.0982 11.3342 30.0691 H 11.5494 C 11.3227 30.4702 11.1995 30.9203 11.1907 31.3795 C 11.1907 32.0746 11.4703 32.7412 11.9681 33.2327 C 12.4658 33.7242 13.1409 34.0003 13.8449 34.0003 C 14.5488 34.0003 15.2239 33.7242 15.7216 33.2327 C 16.2194 32.7412 16.499 32.0746 16.499 31.3795 C 16.4902 30.9203 16.367 30.4702 16.1404 30.0691 H 20.552 C 20.3254 30.4702 20.2022 30.9203 20.1934 31.3795 C 20.1934 32.0746 20.473 32.7412 20.9708 33.2327 C 21.4685 33.7242 22.1436 34.0003 22.8475 34.0003 C 23.5515 34.0003 24.2266 33.7242 24.7243 33.2327 C 25.2221 32.7412 25.5017 32.0746 25.5017 31.3795 C 25.482 30.9172 25.3464 30.467 25.1072 30.0691 H 25.3224 C 26.2166 30.0691 27.0741 29.7183 27.7064 29.094 C 28.3387 28.4697 28.6939 27.6229 28.6939 26.7399 V 10.6253 C 28.6961 9.72746 28.3529 8.86224 27.7336 8.20474 C 27.1144 7.54724 26.2653 7.14653 25.3582 7.08368 H 22.3813 V 3.9316 C 22.6357 3.92247 22.8858 3.8639 23.1172 3.75925 C 23.3487 3.65461 23.557 3.50593 23.7302 3.32172 C 23.9034 3.13752 24.0382 2.9214 24.1267 2.68573 C 24.2153 2.45006 24.256 2.19946 24.2464 1.94827 C 24.2514 1.68807 24.2027 1.4296 24.103 1.18867 C 24.0034 0.947731 23.8551 0.729406 23.667 0.547054 C 23.479 0.364702 23.2553 0.222161 23.0095 0.128157 C 22.7638 0.0341524 22.5012 -0.00933771 22.2378 0.000348808 H 14.347 C 14.0866 -0.00445856 13.8279 0.0426413 13.5864 0.138831 C 13.3448 0.235021 13.1254 0.378326 12.9412 0.560173 C 12.7571 0.74202 12.612 0.958675 12.5145 1.19718 C 12.4171 1.43568 12.3694 1.69114 12.3743 1.94827 C 12.3695 2.20703 12.417 2.46415 12.514 2.70458 C 12.611 2.94502 12.7556 3.16395 12.9393 3.3486 C 13.1229 3.53325 13.342 3.67991 13.5837 3.78001 C 13.8254 3.88011 14.0849 3.93164 14.347 3.9316 V 7.08368 H 11.1189 C 10.3007 7.08567 9.51118 7.38139 8.89746 7.91572 C 8.28374 8.45005 7.88775 9.18652 7.7833 9.98785 L 5.59539 11.192 H 3.58683 C 3.49852 11.1941 3.41158 11.214 3.33137 11.2505 C 3.25117 11.2871 3.17942 11.3395 3.12055 11.4045 L 0.107706 14.592 C 0.0397827 14.6485 -0.0148158 14.719 -0.0522704 14.7985 C -0.0897249 14.8781 -0.109131 14.9647 -0.109131 15.0524 C -0.109131 15.1401 -0.0897249 15.2268 -0.0522704 15.3063 C -0.0148158 15.3858 0.0397827 15.4563 0.107706 15.5128 L 2.51081 17.7087 C 2.63223 17.8368 2.79954 17.9131 2.97709 17.9212 C 3.08858 17.9504 3.20638 17.9457 3.31515 17.9078 C 3.42392 17.8699 3.51859 17.8005 3.58683 17.7087 L 6.63554 14.5212 C 6.67635 14.4077 6.68866 14.2862 6.67141 14.167 L 6.56381 12.3253 Z M 23.2421 26.492 C 23.3282 26.4972 23.4145 26.4842 23.4952 26.454 C 23.5759 26.4238 23.6492 26.377 23.7102 26.3168 C 23.7712 26.2565 23.8186 26.1841 23.8492 26.1045 C 23.8798 26.0248 23.8929 25.9396 23.8877 25.8545 V 11.6878 C 23.8877 11.5188 23.8197 11.3566 23.6986 11.2371 C 23.5775 11.1175 23.4133 11.0503 23.2421 11.0503 C 23.0708 11.0503 22.9066 11.1175 22.7856 11.2371 C 22.6645 11.3566 22.5965 11.5188 22.5965 11.6878 V 25.8545 C 22.6296 25.9981 22.7119 26.1259 22.8296 26.2163 C 22.9473 26.3066 23.093 26.354 23.2421 26.3503 V 26.492 Z" stroke-linecap="round"></path></g></svg>