<svg xmlns="http://www.w3.org/2000/svg" viewBox="0 0 9.97 11.43"><defs><style>.cls-1{fill:#cbb12d;}</style></defs><title>fggdggdfgdg</title><g id="Layer_2" data-name="Layer 2"><g id="Layer_1-2" data-name="Layer 1"><path class="cls-1" d="M7.08,1.76A1.76,1.76,0,0,0,5.32,3.52,1.76,1.76,0,0,0,3.56,1.76,1.76,1.76,0,0,0,5.32,0,1.76,1.76,0,0,0,7.08,1.76M5.25,4.36A2.68,2.68,0,0,1,2.57,7h.24A2.6,2.6,0,0,1,4.94,9.15l.3,2.29.3-2.29A2.6,2.6,0,0,1,7.68,7h.24A2.68,2.68,0,0,1,5.25,4.36Zm-.61-.14A2.32,2.32,0,0,1,2.32,1.91,2.32,2.32,0,0,1,0,4.22H.21A2.33,2.33,0,0,1,2.13,6.09l.19,2.41.17-2.38A2.29,2.29,0,0,1,4.61,4.22ZM8.06,2.31A1.91,1.91,0,0,1,6.15,4.22,1.91,1.91,0,0,1,8.06,6.13,1.91,1.91,0,0,1,10,4.22,1.91,1.91,0,0,1,8.06,2.31Z"></path></g></g></svg>